<svg width="106" height="30" viewBox="0 0 106 30" fill="none" xmlns="http://www.w3.org/2000/svg">
<g clip-path="url(#clip0_425_7470)">
<path d="M104.165 29.6089H1.83486C1.30039 29.6089 0.857178 29.1654 0.857178 28.6306C0.857178 28.0958 1.30039 27.6523 1.83486 27.6523H104.165C104.7 27.6523 105.143 28.0958 105.143 28.6306C105.143 29.1654 104.7 29.6089 104.165 29.6089ZM1.83486 28.0436C1.50896 28.0436 1.24825 28.3045 1.24825 28.6306C1.24825 28.9567 1.50896 29.2176 1.83486 29.2176H104.165C104.491 29.2176 104.752 28.9567 104.752 28.6306C104.752 28.3045 104.491 28.0436 104.165 28.0436H1.83486Z" fill="#EB8C57"/>
<path d="M47.512 29.4131H1.70452C1.33952 29.4131 1.05273 29.1262 1.05273 28.7609V28.5001C1.05273 28.1349 1.33952 27.8479 1.70452 27.8479H47.512C47.877 27.8479 48.1638 28.1349 48.1638 28.5001V28.7609C48.1768 29.1262 47.877 29.4131 47.512 29.4131Z" fill="#EB8C57"/>
<path d="M4.06388 18.0392V24.7566H1.49585V2.96094H9.99513V5.42615H4.06388V15.5609H7.14031V18.0262H4.06388V18.0392Z" fill="#EB8C57"/>
<path d="M25.6509 24.7696C24.5559 24.7305 23.6434 24.4305 22.9395 23.8566C22.0791 23.1653 21.5707 22.2001 21.4143 20.974V0.391357H23.8129V20.7001C23.8259 20.7783 23.8259 20.8566 23.8389 20.9479C23.9041 21.4305 24.1257 21.8088 24.4907 22.1088C24.7645 22.3174 25.1425 22.4479 25.6379 22.474V24.7696H25.6509Z" fill="#EB8C57"/>
<path d="M37.8265 12.6132C37.8656 12.548 38.0611 12.3523 38.387 12.0262C39.5211 10.8914 40.9029 10.3306 42.5324 10.3306C44.1619 10.3306 45.5436 10.9045 46.6778 12.0262C47.7597 13.1088 48.3333 14.3871 48.3985 15.861V24.7567H46.026V15.861C45.9738 14.974 45.6349 14.2045 45.0092 13.5653C44.3313 12.9001 43.5101 12.561 42.5585 12.561C41.6199 12.561 40.8117 12.9001 40.1208 13.5784C39.4299 14.2567 39.0779 15.1045 39.0779 16.1088V24.7306H36.6403V15.8349C36.5881 14.948 36.2492 14.1784 35.6235 13.5393C34.9456 12.874 34.1244 12.5349 33.1728 12.5349C32.2342 12.5349 31.426 12.874 30.7351 13.5523C30.0442 14.2306 29.7053 15.0784 29.7053 16.0827V24.7045H27.2676V10.474H29.6401V11.4393C30.3961 10.6958 31.5824 10.3306 33.1858 10.3306C34.8153 10.3306 36.197 10.9045 37.3311 12.0262C37.6049 12.3523 37.7874 12.548 37.8265 12.6132Z" fill="#EB8C57"/>
<path d="M52.3221 12.1827C53.5214 10.9436 55.1248 10.3306 57.1453 10.3306C57.9666 10.3306 58.7357 10.448 59.4657 10.6827C60.5085 11.0349 61.4471 11.6219 62.2944 12.4567C63.0375 13.1871 63.5719 13.9958 63.9109 14.8827C64.2107 15.6001 64.3541 16.4219 64.3541 17.348V24.7567H61.9816V17.1132C61.8643 15.9393 61.3689 14.9349 60.5216 14.061C59.583 13.1349 58.4619 12.6784 57.1584 12.6784C55.8678 12.6784 54.7468 13.148 53.8082 14.0871C52.8957 15.0001 52.4134 16.0958 52.3482 17.374V24.7436H49.9626V10.474H52.3352V12.1827H52.3221Z" fill="#EB8C57"/>
<path d="M78.6282 18.3001H80.9224C80.7399 20.1392 80.023 21.6914 78.7846 22.9305C77.3637 24.3523 75.63 25.0697 73.5833 25.0697C71.5498 25.0697 69.816 24.3523 68.3821 22.9305C66.9482 21.4958 66.2312 19.7871 66.2312 17.7784C66.2312 15.7827 66.9482 14.061 68.3821 12.6392C69.816 11.2045 71.5498 10.4871 73.5833 10.4871C75.63 10.4871 77.3767 11.2045 78.7976 12.6523C79.9839 13.8392 80.6878 15.3131 80.9094 17.0871H68.5646C68.5385 17.2436 68.5255 17.4784 68.5255 17.7914C68.5255 19.2131 69.0208 20.4262 70.0246 21.4175C71.0153 22.4088 72.2016 22.9044 73.5833 22.9044C74.9651 22.9044 76.1514 22.4088 77.1551 21.4305C77.9633 20.5958 78.4587 19.5523 78.6282 18.3001ZM77.7417 14.8305C77.6635 14.7001 77.4549 14.4653 77.1291 14.1262C76.1383 13.1479 74.9521 12.6523 73.5703 12.6523C72.2016 12.6523 71.0153 13.1479 70.0116 14.1523C69.6857 14.4653 69.4901 14.7001 69.4119 14.8305H77.7417Z" fill="#EB8C57"/>
<path d="M84.8853 12.1827C86.0716 10.9436 87.7923 10.3306 90.0214 10.3306V12.7045C88.5092 12.7045 87.2839 13.174 86.3453 14.1132C85.4328 15.0262 84.9505 16.1219 84.8853 17.4001V24.7697H82.4998V10.474H84.8853V12.1827Z" fill="#EB8C57"/>
<path d="M102.575 12.1174V0.391357H104.947V24.7566H102.575V22.9696C101.349 24.1696 99.733 24.7566 97.7124 24.7566C95.6919 24.7566 93.9712 24.0522 92.5633 22.6305C91.1424 21.2087 90.4385 19.5131 90.4385 17.5305C90.4385 15.5479 91.1424 13.8522 92.5633 12.4435C93.9842 11.0218 95.6919 10.3174 97.7124 10.3174C99.733 10.3174 101.349 10.9174 102.575 12.1174ZM102.575 18.7957V16.3044C102.366 15.4305 101.923 14.6348 101.232 13.9435C100.254 12.9653 99.0812 12.4827 97.7124 12.4827C96.3567 12.4827 95.1835 12.9783 94.2058 13.9566C93.2151 14.9348 92.7328 16.1348 92.7328 17.5435C92.7328 18.9522 93.2281 20.1522 94.2058 21.1305C95.1965 22.1087 96.3567 22.6044 97.7124 22.6044C99.0812 22.6044 100.267 22.1087 101.245 21.1305C101.923 20.4522 102.366 19.6696 102.575 18.7957Z" fill="#EB8C57"/>
<path d="M16.7868 14.8306H14.4143V24.7567H16.7868V14.8306Z" fill="#EB8C57"/>
<path d="M18.8464 5.43918C17.0605 3.58701 14.1666 3.58701 12.3155 5.43918C10.5296 7.22614 10.5296 10.1087 12.3155 11.9609C14.1666 13.7479 17.0605 13.7479 18.8464 11.9609C20.6844 10.1087 20.6844 7.22614 18.8464 5.43918ZM17.4516 10.5522C16.4348 11.5696 14.7792 11.5696 13.7234 10.5522C12.7066 9.4957 12.7066 7.85222 13.7234 6.83483C14.7792 5.77831 16.4217 5.77831 17.4516 6.83483C18.5075 7.85222 18.5075 9.4957 17.4516 10.5522Z" fill="#EB8C57"/>
</g>
<defs>
<clipPath id="clip0_425_7470">
<rect width="104.286" height="30" fill="white" transform="translate(0.857178)"/>
</clipPath>
</defs>
</svg>
